<svg version="1.1" id="Layer_1" xmlns="http://www.w3.org/2000/svg" xmlns:xlink="http://www.w3.org/1999/xlink" x="0px" y="0px"
	 width="100%" viewBox="0 0 1474 693" enable-background="new 0 0 1474 693" xml:space="preserve">
<path fill="#FFFFFF" opacity="1.000000" stroke="none" 
	d="
M1103.000000,694.000000 
	C735.375610,694.000000 368.251221,694.000000 1.063422,694.000000 
	C1.063422,463.068909 1.063422,232.137772 1.063422,1.103324 
	C492.333313,1.103324 983.666687,1.103324 1474.978149,1.103324 
	C1474.978149,232.082367 1474.978149,463.041199 1474.978149,694.000000 
	C1351.137573,694.000000 1227.318726,694.000000 1103.000000,694.000000 
M733.836060,412.832336 
	C749.093323,412.246490 764.671082,413.444153 779.553040,410.769684 
	C848.285400,398.417755 894.968323,358.713593 920.500916,293.882233 
	C923.521484,286.212555 924.844788,278.365356 924.794922,270.022980 
	C924.553711,229.693970 924.703003,189.362732 924.661621,149.032333 
	C924.657349,144.879700 924.463745,140.713135 924.090576,136.577194 
	C920.323425,94.824898 883.946289,61.408142 842.082886,61.343636 
	C794.419678,61.270195 746.756348,61.292625 699.093323,61.396812 
	C695.840027,61.403923 692.404968,61.956192 689.374023,63.100983 
	C682.381165,65.742188 675.370178,68.488754 668.742126,71.918495 
	C599.019104,107.997009 560.766479,181.021454 572.035767,258.714813 
	C580.660400,318.174927 612.546631,362.295319 664.677246,391.761566 
	C685.816101,403.710144 708.828552,410.112030 733.836060,412.832336 
M542.935791,246.376678 
	C543.347229,232.742279 542.533203,218.938950 544.385132,205.503113 
	C551.844360,151.387894 576.981812,106.860413 619.198181,72.080040 
	C623.288757,68.709961 627.510681,65.499275 632.799011,61.324593 
	C626.907288,61.324593 622.606323,61.297569 618.305786,61.329079 
	C594.321960,61.504814 570.265198,60.571918 546.370789,62.128372 
	C504.772461,64.838043 471.124268,102.180901 471.116272,143.911606 
	C471.097992,239.395981 471.090790,334.880371 471.169617,430.364655 
	C471.173584,435.161560 471.619293,440.039673 472.555359,444.741425 
	C480.808197,486.194672 513.707275,513.644897 556.594788,513.781250 
	C650.578430,514.080200 744.563843,513.975403 838.548157,513.791870 
	C864.357178,513.741516 886.161499,504.045380 903.252502,484.388824 
	C917.213562,468.332153 923.462708,449.404907 923.622375,428.395874 
	C923.814880,403.068146 923.679138,377.737885 923.667786,352.408722 
	C923.667053,350.824982 923.512024,349.241272 923.380798,346.744446 
	C921.981995,348.466309 921.113770,349.397003 920.400024,350.434082 
	C909.759033,365.897125 897.333374,379.776581 882.815857,391.655334 
	C832.549133,432.785187 775.134216,447.991516 711.369568,436.500153 
	C661.297607,427.476410 620.127075,402.242676 588.156555,362.618195 
	C561.045715,329.016876 546.068848,290.456787 542.935791,246.376678 
M780.272156,599.676941 
	C787.738647,587.236023 784.674500,577.536682 770.888672,570.021240 
	C770.888672,569.874390 770.824341,569.669556 770.899475,569.569336 
	C771.294922,569.041992 771.677856,568.491028 772.151428,568.038635 
	C777.698364,562.740234 779.194214,556.499023 776.126343,549.452087 
	C773.048950,542.382874 767.471008,539.578369 759.772339,539.739319 
	C746.458740,540.017761 733.135010,539.815186 719.815552,539.814697 
	C709.858582,539.814392 699.901672,539.814636 689.720276,539.814636 
	C689.720276,562.607849 689.720276,584.994690 689.720276,607.277710 
	C690.263916,607.523315 690.550049,607.765442 690.836548,607.765930 
	C715.475647,607.804565 740.115295,607.921448 764.753418,607.776917 
	C770.803406,607.741394 776.067200,605.291626 780.272156,599.676941 
M574.823792,541.349426 
	C574.823792,563.441284 574.823792,585.533081 574.823792,607.549622 
	C582.627380,607.549622 589.875427,607.549622 597.654053,607.549622 
	C597.654053,591.912720 597.654053,576.564819 597.654053,561.216919 
	C598.165405,560.884766 598.676697,560.552673 599.188049,560.220520 
	C600.202698,561.693237 601.021912,563.359985 602.262024,564.608704 
	C615.637512,578.076416 629.053162,591.504761 642.544373,604.856384 
	C643.852844,606.151245 645.696167,607.604858 647.368652,607.706055 
	C653.153442,608.056396 658.972534,607.841064 664.841431,607.841064 
	C664.841431,584.982422 664.841431,562.441162 664.841431,540.104370 
	C657.225525,540.104370 649.950745,540.104370 642.067627,540.104370 
	C642.067627,555.694275 642.067627,570.998352 642.067627,587.275574 
	C626.687134,571.871521 612.125000,557.263245 597.515747,542.702148 
	C596.385925,541.576050 594.935669,539.986206 593.616577,539.968872 
	C587.377747,539.886841 581.132690,540.276855 574.823792,541.349426 
M910.290588,551.000427 
	C892.032837,551.000427 873.775085,551.000427 855.528442,551.000427 
	C855.403442,551.352478 855.203064,551.654480 855.202332,551.956970 
	C855.173096,563.776978 855.117371,575.597290 855.161011,587.417114 
	C855.205994,599.619263 862.727295,607.512878 874.900940,607.795288 
	C885.051453,608.030823 895.218506,608.075317 905.365967,607.781677 
	C917.142029,607.440979 924.434387,599.695740 924.518555,587.992188 
	C924.559204,582.331787 924.533752,576.670898 924.524292,571.010193 
	C924.507080,560.690674 920.749939,555.147278 910.290588,551.000427 
M494.176819,574.495728 
	C494.176819,563.046387 494.176819,551.597046 494.176819,540.028198 
	C486.331970,540.028198 478.896057,540.028198 471.152435,540.028198 
	C471.152435,554.547852 471.148499,568.858459 471.153503,583.169128 
	C471.158813,598.334167 480.451508,607.722778 495.711426,607.827271 
	C508.206848,607.912842 520.703308,607.846436 533.199280,607.847168 
	C538.812988,607.847473 544.426697,607.847229 550.191711,607.847229 
	C550.191711,603.628662 550.191711,599.910339 550.191711,595.991394 
	C535.202759,595.991394 520.547668,596.030029 505.892853,595.974609 
	C498.865143,595.947998 494.428741,591.545044 494.197540,584.489624 
	C494.099396,581.493774 494.178802,578.492065 494.176819,574.495728 
M817.580078,607.862793 
	C821.196472,607.862793 824.812927,607.862793 828.636963,607.862793 
	C828.636963,588.553955 828.636963,569.797241 828.636963,550.816589 
	C822.453186,550.816589 816.403137,550.816589 810.435791,550.816589 
	C810.435791,569.934143 810.435791,588.693604 810.435791,607.869690 
	C812.687500,607.869690 814.654907,607.869690 817.580078,607.862793 
z"/>
<path fill="#588DCB" opacity="1.000000" stroke="none" 
	d="
M733.376709,412.787872 
	C708.828552,410.112030 685.816101,403.710144 664.677246,391.761566 
	C612.546631,362.295319 580.660400,318.174927 572.035767,258.714813 
	C560.766479,181.021454 599.019104,107.997009 668.742126,71.918495 
	C675.370178,68.488754 682.381165,65.742188 689.374023,63.100983 
	C692.404968,61.956192 695.840027,61.403923 699.093323,61.396812 
	C746.756348,61.292625 794.419678,61.270195 842.082886,61.343636 
	C883.946289,61.408142 920.323425,94.824898 924.090576,136.577194 
	C924.463745,140.713135 924.657349,144.879700 924.661621,149.032333 
	C924.703003,189.362732 924.553711,229.693970 924.794922,270.022980 
	C924.844788,278.365356 923.521484,286.212555 920.500916,293.882233 
	C894.968323,358.713593 848.285400,398.417755 779.553040,410.769684 
	C764.671082,413.444153 749.093323,412.246490 733.376709,412.787872 
M748.984375,289.348877 
	C750.034241,283.512817 751.975647,277.674866 751.963318,271.841064 
	C751.929077,255.683075 743.956848,243.901138 729.568726,236.937759 
	C714.973877,229.874359 700.597351,231.294922 687.716064,241.084717 
	C674.808167,250.894775 669.715393,264.461487 672.513184,280.373505 
	C675.474731,297.217072 689.141663,310.417114 705.014709,312.862640 
	C723.551636,315.718658 739.739685,307.281036 748.984375,289.348877 
M795.740479,157.154465 
	C784.745483,166.717178 782.148682,179.157074 788.660767,191.070190 
	C794.403015,201.574982 807.407288,206.965530 818.985413,203.304367 
	C829.855103,199.867218 836.338806,192.220261 837.610474,180.962463 
	C838.785339,170.561920 834.745239,161.950058 825.825500,156.261810 
	C816.035706,150.018768 806.074280,150.430161 795.740479,157.154465 
z"/>
<path fill="#588DCB" opacity="1.000000" stroke="none" 
	d="
M542.959717,246.857712 
	C546.068848,290.456787 561.045715,329.016876 588.156555,362.618195 
	C620.127075,402.242676 661.297607,427.476410 711.369568,436.500153 
	C775.134216,447.991516 832.549133,432.785187 882.815857,391.655334 
	C897.333374,379.776581 909.759033,365.897125 920.400024,350.434082 
	C921.113770,349.397003 921.981995,348.466309 923.380798,346.744446 
	C923.512024,349.241272 923.667053,350.824982 923.667786,352.408722 
	C923.679138,377.737885 923.814880,403.068146 923.622375,428.395874 
	C923.462708,449.404907 917.213562,468.332153 903.252502,484.388824 
	C886.161499,504.045380 864.357178,513.741516 838.548157,513.791870 
	C744.563843,513.975403 650.578430,514.080200 556.594788,513.781250 
	C513.707275,513.644897 480.808197,486.194672 472.555359,444.741425 
	C471.619293,440.039673 471.173584,435.161560 471.169617,430.364655 
	C471.090790,334.880371 471.097992,239.395981 471.116272,143.911606 
	C471.124268,102.180901 504.772461,64.838043 546.370789,62.128372 
	C570.265198,60.571918 594.321960,61.504814 618.305786,61.329079 
	C622.606323,61.297569 626.907288,61.324593 632.799011,61.324593 
	C627.510681,65.499275 623.288757,68.709961 619.198181,72.080040 
	C576.981812,106.860413 551.844360,151.387894 544.385132,205.503113 
	C542.533203,218.938950 543.347229,232.742279 542.959717,246.857712 
z"/>
<path fill="#050505" opacity="1.000000" stroke="none" 
	d="
M780.059387,599.975037 
	C776.067200,605.291626 770.803406,607.741394 764.753418,607.776917 
	C740.115295,607.921448 715.475647,607.804565 690.836548,607.765930 
	C690.550049,607.765442 690.263916,607.523315 689.720276,607.277710 
	C689.720276,584.994690 689.720276,562.607849 689.720276,539.814636 
	C699.901672,539.814636 709.858582,539.814392 719.815552,539.814697 
	C733.135010,539.815186 746.458740,540.017761 759.772339,539.739319 
	C767.471008,539.578369 773.048950,542.382874 776.126343,549.452087 
	C779.194214,556.499023 777.698364,562.740234 772.151428,568.038635 
	C771.677856,568.491028 771.294922,569.041992 770.899475,569.569336 
	C770.824341,569.669556 770.888672,569.874390 770.888672,570.021240 
	C784.674500,577.536682 787.738647,587.236023 780.059387,599.975037 
M731.499390,579.167603 
	C724.934814,579.167603 718.370178,579.167603 711.691101,579.167603 
	C711.691101,585.162903 711.691101,590.420715 711.691101,596.106506 
	C726.115723,596.106506 740.359375,596.227966 754.598633,596.032471 
	C758.868835,595.973877 761.914062,592.257874 761.993530,588.082153 
	C762.071289,583.995850 759.135193,580.220581 754.874573,579.930298 
	C747.433044,579.423462 739.958801,579.395935 731.499390,579.167603 
M724.519165,551.153870 
	C720.376892,551.153870 716.234558,551.153870 711.841736,551.153870 
	C711.841736,556.861145 711.841736,562.245178 711.841736,567.837402 
	C723.691223,567.837402 735.182312,567.936035 746.670410,567.794922 
	C752.246033,567.726501 755.677185,564.125916 755.498962,559.102539 
	C755.327332,554.266174 751.976746,551.231323 746.508545,551.172913 
	C739.511047,551.098145 732.512085,551.154175 724.519165,551.153870 
z"/>
<path fill="#040404" opacity="1.000000" stroke="none" 
	d="
M574.856812,540.924072 
	C581.132690,540.276855 587.377747,539.886841 593.616577,539.968872 
	C594.935669,539.986206 596.385925,541.576050 597.515747,542.702148 
	C612.125000,557.263245 626.687134,571.871521 642.067627,587.275574 
	C642.067627,570.998352 642.067627,555.694275 642.067627,540.104370 
	C649.950745,540.104370 657.225525,540.104370 664.841431,540.104370 
	C664.841431,562.441162 664.841431,584.982422 664.841431,607.841064 
	C658.972534,607.841064 653.153442,608.056396 647.368652,607.706055 
	C645.696167,607.604858 643.852844,606.151245 642.544373,604.856384 
	C629.053162,591.504761 615.637512,578.076416 602.262024,564.608704 
	C601.021912,563.359985 600.202698,561.693237 599.188049,560.220520 
	C598.676697,560.552673 598.165405,560.884766 597.654053,561.216919 
	C597.654053,576.564819 597.654053,591.912720 597.654053,607.549622 
	C589.875427,607.549622 582.627380,607.549622 574.823792,607.549622 
	C574.823792,585.533081 574.823792,563.441284 574.856812,540.924072 
z"/>
<path fill="#050505" opacity="1.000000" stroke="none" 
	d="
M910.689575,551.080688 
	C920.749939,555.147278 924.507080,560.690674 924.524292,571.010193 
	C924.533752,576.670898 924.559204,582.331787 924.518555,587.992188 
	C924.434387,599.695740 917.142029,607.440979 905.365967,607.781677 
	C895.218506,608.075317 885.051453,608.030823 874.900940,607.795288 
	C862.727295,607.512878 855.205994,599.619263 855.161011,587.417114 
	C855.117371,575.597290 855.173096,563.776978 855.202332,551.956970 
	C855.203064,551.654480 855.403442,551.352478 855.528442,551.000427 
	C873.775085,551.000427 892.032837,551.000427 910.689575,551.080688 
M884.892944,597.832703 
	C888.548767,597.832214 892.206116,597.897339 895.860168,597.816284 
	C901.778992,597.684998 905.539246,594.228577 905.768066,588.280334 
	C906.004211,582.141113 906.003418,575.978394 905.761963,569.839539 
	C905.548157,564.404724 902.002869,560.505981 896.788635,560.286316 
	C889.364990,559.973572 881.918335,560.206848 874.129456,560.206848 
	C874.129456,570.147644 873.869751,579.743591 874.231445,589.316040 
	C874.432922,594.648071 877.964172,597.274414 884.892944,597.832703 
z"/>
<path fill="#040404" opacity="1.000000" stroke="none" 
	d="
M494.177185,574.994385 
	C494.178802,578.492065 494.099396,581.493774 494.197540,584.489624 
	C494.428741,591.545044 498.865143,595.947998 505.892853,595.974609 
	C520.547668,596.030029 535.202759,595.991394 550.191711,595.991394 
	C550.191711,599.910339 550.191711,603.628662 550.191711,607.847229 
	C544.426697,607.847229 538.812988,607.847473 533.199280,607.847168 
	C520.703308,607.846436 508.206848,607.912842 495.711426,607.827271 
	C480.451508,607.722778 471.158813,598.334167 471.153503,583.169128 
	C471.148499,568.858459 471.152435,554.547852 471.152435,540.028198 
	C478.896057,540.028198 486.331970,540.028198 494.176819,540.028198 
	C494.176819,551.597046 494.176819,563.046387 494.177185,574.994385 
z"/>
<path fill="#0A0A0A" opacity="1.000000" stroke="none" 
	d="
M817.101196,607.866211 
	C814.654907,607.869690 812.687500,607.869690 810.435791,607.869690 
	C810.435791,588.693604 810.435791,569.934143 810.435791,550.816589 
	C816.403137,550.816589 822.453186,550.816589 828.636963,550.816589 
	C828.636963,569.797241 828.636963,588.553955 828.636963,607.862793 
	C824.812927,607.862793 821.196472,607.862793 817.101196,607.866211 
z"/>
<path fill="#FDFEFE" opacity="1.000000" stroke="none" 
	d="
M748.861572,289.710754 
	C739.739685,307.281036 723.551636,315.718658 705.014709,312.862640 
	C689.141663,310.417114 675.474731,297.217072 672.513184,280.373505 
	C669.715393,264.461487 674.808167,250.894775 687.716064,241.084717 
	C700.597351,231.294922 714.973877,229.874359 729.568726,236.937759 
	C743.956848,243.901138 751.929077,255.683075 751.963318,271.841064 
	C751.975647,277.674866 750.034241,283.512817 748.861572,289.710754 
z"/>
<path fill="#FCFEFE" opacity="1.000000" stroke="none" 
	d="
M796.047668,156.958710 
	C806.074280,150.430161 816.035706,150.018768 825.825500,156.261810 
	C834.745239,161.950058 838.785339,170.561920 837.610474,180.962463 
	C836.338806,192.220261 829.855103,199.867218 818.985413,203.304367 
	C807.407288,206.965530 794.403015,201.574982 788.660767,191.070190 
	C782.148682,179.157074 784.745483,166.717178 796.047668,156.958710 
z"/>
<path fill="#FAFAFA" opacity="1.000000" stroke="none" 
	d="
M731.998840,579.167603 
	C739.958801,579.395935 747.433044,579.423462 754.874573,579.930298 
	C759.135193,580.220581 762.071289,583.995850 761.993530,588.082153 
	C761.914062,592.257874 758.868835,595.973877 754.598633,596.032471 
	C740.359375,596.227966 726.115723,596.106506 711.691101,596.106506 
	C711.691101,590.420715 711.691101,585.162903 711.691101,579.167603 
	C718.370178,579.167603 724.934814,579.167603 731.998840,579.167603 
z"/>
<path fill="#F6F6F6" opacity="1.000000" stroke="none" 
	d="
M725.016479,551.153809 
	C732.512085,551.154175 739.511047,551.098145 746.508545,551.172913 
	C751.976746,551.231323 755.327332,554.266174 755.498962,559.102539 
	C755.677185,564.125916 752.246033,567.726501 746.670410,567.794922 
	C735.182312,567.936035 723.691223,567.837402 711.841736,567.837402 
	C711.841736,562.245178 711.841736,556.861145 711.841736,551.153870 
	C716.234558,551.153870 720.376892,551.153870 725.016479,551.153809 
z"/>
<path fill="#FBFBFB" opacity="1.000000" stroke="none" 
	d="
M884.445068,597.832397 
	C877.964172,597.274414 874.432922,594.648071 874.231445,589.316040 
	C873.869751,579.743591 874.129456,570.147644 874.129456,560.206848 
	C881.918335,560.206848 889.364990,559.973572 896.788635,560.286316 
	C902.002869,560.505981 905.548157,564.404724 905.761963,569.839539 
	C906.003418,575.978394 906.004211,582.141113 905.768066,588.280334 
	C905.539246,594.228577 901.778992,597.684998 895.860168,597.816284 
	C892.206116,597.897339 888.548767,597.832214 884.445068,597.832397 
z"/>
</svg>