<?xml version="1.0" encoding="UTF-8" standalone="no"?>
<!-- Generator: Adobe Illustrator 22.1.0, SVG Export Plug-In . SVG Version: 6.00 Build 0)  -->

<svg
   xmlns:dc="http://purl.org/dc/elements/1.1/"
   xmlns:cc="http://creativecommons.org/ns#"
   xmlns:rdf="http://www.w3.org/1999/02/22-rdf-syntax-ns#"
   xmlns:svg="http://www.w3.org/2000/svg"
   xmlns="http://www.w3.org/2000/svg"
   xmlns:sodipodi="http://sodipodi.sourceforge.net/DTD/sodipodi-0.dtd"
   xmlns:inkscape="http://www.inkscape.org/namespaces/inkscape"
   version="1.1"
   id="Layer_1"
   x="0px"
   y="0px"
   viewBox="0 0 400.00001 224.99999"
   xml:space="preserve"
   sodipodi:docname="LNLS-Assinatura.svg"
   width="400"
   height="225"
   inkscape:version="0.92.1 r15371"><metadata
     id="metadata257"><rdf:RDF><cc:Work
         rdf:about=""><dc:format>image/svg+xml</dc:format><dc:type
           rdf:resource="http://purl.org/dc/dcmitype/StillImage" /><dc:title></dc:title></cc:Work></rdf:RDF></metadata><defs
     id="defs255" /><sodipodi:namedview
     pagecolor="#ffffff"
     bordercolor="#666666"
     borderopacity="1"
     objecttolerance="10"
     gridtolerance="10"
     guidetolerance="10"
     inkscape:pageopacity="0"
     inkscape:pageshadow="2"
     inkscape:window-width="1366"
     inkscape:window-height="715"
     id="namedview253"
     showgrid="false"
     inkscape:zoom="0.55503291"
     inkscape:cx="103.33897"
     inkscape:cy="331.80032"
     inkscape:window-x="-8"
     inkscape:window-y="-8"
     inkscape:window-maximized="1"
     inkscape:current-layer="Layer_1" /><style
     type="text/css"
     id="style2">
	.st0{fill:#FFFFFF;}
	.st1{fill:#0077B8;}
	.st2{fill-rule:evenodd;clip-rule:evenodd;}
</style><rect
     x="8.8999863"
     y="1.9999847"
     class="st0"
     width="184.2"
     height="223.3"
     id="rect6"
     style="fill:#ffffff" /><g
     id="g128"
     transform="translate(-124,-100.20001)"><g
       id="g76"><path
         d="m 337,240.1 h 1.8 v 13.7 h 5.9 v 1.7 H 337 Z"
         id="path8"
         inkscape:connector-curvature="0" /><path
         d="m 353.7,252.9 c 0,1 0,1.9 0.1,2.7 h -1.6 l -0.1,-1.4 H 352 c -0.6,0.9 -1.6,1.6 -3,1.6 -2,0 -3,-1.6 -3,-3.2 0,-2.7 2.1,-4.1 6,-4.1 v -0.2 c 0,-0.9 -0.2,-2.6 -2.3,-2.5 -0.9,0 -1.9,0.3 -2.6,0.8 l -0.4,-1.3 c 0.8,-0.6 2,-1 3.3,-1 3,0 3.8,2.3 3.8,4.5 v 4.1 z m -1.8,-3 c -2,0 -4.2,0.3 -4.2,2.5 0,1.3 0.8,1.9 1.7,1.9 1.3,0 2.2,-0.9 2.4,-1.8 0.1,-0.2 0.1,-0.5 0.1,-0.6 z"
         id="path10"
         inkscape:connector-curvature="0" /><path
         d="m 356.6,239.3 h 1.8 v 6.9 0 c 0.6,-1.2 1.8,-2 3.4,-2 2.5,0 4.2,2.3 4.2,5.6 0,4 -2.3,5.9 -4.5,5.9 -1.4,0 -2.6,-0.6 -3.4,-2.1 v 0 l -0.1,1.8 h -1.5 c 0,-0.8 0.1,-1.9 0.1,-2.9 z m 1.8,11.8 c 0,0.3 0,0.5 0.1,0.7 0.3,1.4 1.4,2.4 2.7,2.4 1.9,0 3,-1.7 3,-4.3 0,-2.2 -1,-4.1 -3,-4.1 -1.2,0 -2.4,1 -2.7,2.5 -0.1,0.3 -0.1,0.5 -0.1,0.8 z"
         id="path12"
         inkscape:connector-curvature="0" /><path
         d="m 377.3,249.9 c 0,4.1 -2.6,5.9 -5,5.9 -2.7,0 -4.8,-2.2 -4.8,-5.7 0,-3.7 2.2,-5.9 4.9,-5.9 3,0.1 4.9,2.4 4.9,5.7 z m -7.8,0.1 c 0,2.4 1.2,4.2 3,4.2 1.7,0 3,-1.8 3,-4.3 0,-1.9 -0.8,-4.2 -3,-4.2 -2.1,0.1 -3,2.3 -3,4.3 z"
         id="path14"
         inkscape:connector-curvature="0" /><path
         d="m 379.6,247.9 c 0,-1.3 0,-2.4 -0.1,-3.4 h 1.6 l 0.1,2.2 h 0.1 c 0.5,-1.5 1.6,-2.4 2.8,-2.4 0.2,0 0.3,0 0.5,0 v 1.9 c -0.2,0 -0.4,0 -0.6,0 -1.3,0 -2.2,1 -2.4,2.6 0,0.3 -0.1,0.6 -0.1,0.9 v 5.9 h -1.8 v -7.7 z"
         id="path16"
         inkscape:connector-curvature="0" /><path
         d="m 393.2,252.9 c 0,1 0,1.9 0.1,2.7 h -1.6 l -0.1,-1.4 h -0.1 c -0.6,0.9 -1.6,1.6 -3,1.6 -2,0 -3,-1.6 -3,-3.2 0,-2.7 2.1,-4.1 6,-4.1 v -0.2 c 0,-0.9 -0.2,-2.6 -2.3,-2.5 -0.9,0 -1.9,0.3 -2.6,0.8 l -0.4,-1.3 c 0.8,-0.6 2,-1 3.3,-1 3,0 3.8,2.3 3.8,4.5 v 4.1 z m -1.7,-3 c -2,0 -4.2,0.3 -4.2,2.5 0,1.3 0.8,1.9 1.7,1.9 1.3,0 2.2,-0.9 2.4,-1.8 0.1,-0.2 0.1,-0.5 0.1,-0.6 z"
         id="path18"
         inkscape:connector-curvature="0" /><path
         d="m 398.3,241.8 v 2.7 h 2.6 v 1.5 h -2.6 v 6 c 0,1.4 0.3,2.1 1.4,2.1 0.5,0 0.8,0 1,-0.1 l 0.1,1.5 c -0.3,0.1 -0.9,0.3 -1.6,0.3 -0.8,0 -1.5,-0.3 -2,-0.8 -0.5,-0.6 -0.7,-1.6 -0.7,-2.9 v -6 H 395 v -1.5 h 1.5 v -2.1 z"
         id="path20"
         inkscape:connector-curvature="0" /><path
         d="m 411.8,249.9 c 0,4.1 -2.6,5.9 -5,5.9 -2.7,0 -4.8,-2.2 -4.8,-5.7 0,-3.7 2.2,-5.9 4.9,-5.9 3,0.1 4.9,2.4 4.9,5.7 z m -7.9,0.1 c 0,2.4 1.2,4.2 3,4.2 1.7,0 3,-1.8 3,-4.3 0,-1.9 -0.8,-4.2 -3,-4.2 -2.1,0.1 -3,2.3 -3,4.3 z m 5.7,-10.3 -2.5,3.3 h -1.3 l 1.8,-3.3 z"
         id="path22"
         inkscape:connector-curvature="0" /><path
         d="m 414.1,247.9 c 0,-1.3 0,-2.4 -0.1,-3.4 h 1.6 l 0.1,2.2 h 0.1 c 0.5,-1.5 1.6,-2.4 2.8,-2.4 0.2,0 0.3,0 0.5,0 v 1.9 c -0.2,0 -0.4,0 -0.6,0 -1.3,0 -2.2,1 -2.4,2.6 0,0.3 -0.1,0.6 -0.1,0.9 v 5.9 h -1.8 v -7.7 z"
         id="path24"
         inkscape:connector-curvature="0" /><path
         d="m 422.9,241.4 c 0,0.7 -0.4,1.2 -1.2,1.2 -0.7,0 -1.1,-0.5 -1.1,-1.2 0,-0.7 0.5,-1.3 1.1,-1.3 0.7,0 1.2,0.6 1.2,1.3 z m -2,14.1 v -11.1 h 1.8 v 11.1 z"
         id="path26"
         inkscape:connector-curvature="0" /><path
         d="m 434.7,249.9 c 0,4.1 -2.6,5.9 -5,5.9 -2.7,0 -4.8,-2.2 -4.8,-5.7 0,-3.7 2.2,-5.9 4.9,-5.9 3,0.1 4.9,2.4 4.9,5.7 z m -7.9,0.1 c 0,2.4 1.2,4.2 3,4.2 1.7,0 3,-1.8 3,-4.3 0,-1.9 -0.8,-4.2 -3,-4.2 -2,0.1 -3,2.3 -3,4.3 z"
         id="path28"
         inkscape:connector-curvature="0" /><path
         d="m 441.4,255.5 v -15.4 h 2 l 4.4,7.8 c 1,1.8 1.8,3.4 2.5,5 h 0.1 c -0.2,-2.1 -0.2,-3.9 -0.2,-6.3 v -6.4 h 1.7 v 15.4 H 450 l -4.4,-7.8 c -1,-1.7 -1.9,-3.5 -2.6,-5.1 h -0.1 c 0.1,1.9 0.1,3.8 0.1,6.4 v 6.6 h -1.6 z"
         id="path30"
         inkscape:connector-curvature="0" /><path
         d="m 461.9,252.9 c 0,1 0,1.9 0.1,2.7 h -1.6 l -0.1,-1.4 h -0.1 c -0.6,0.9 -1.6,1.6 -3,1.6 -2,0 -3,-1.6 -3,-3.2 0,-2.7 2.1,-4.1 6,-4.1 v -0.2 c 0,-0.9 -0.2,-2.6 -2.3,-2.5 -0.9,0 -1.9,0.3 -2.6,0.8 l -0.4,-1.3 c 0.8,-0.6 2,-1 3.3,-1 3,0 3.8,2.3 3.8,4.5 v 4.1 z m -1.8,-3 c -2,0 -4.2,0.3 -4.2,2.5 0,1.3 0.8,1.9 1.7,1.9 1.3,0 2.2,-0.9 2.4,-1.8 0.1,-0.2 0.1,-0.5 0.1,-0.6 z"
         id="path32"
         inkscape:connector-curvature="0" /><path
         d="m 471.9,255.2 c -0.5,0.3 -1.5,0.6 -2.9,0.6 -3,0 -5,-2.3 -5,-5.6 0,-3.4 2.1,-5.9 5.4,-5.9 1.1,0 2,0.3 2.5,0.6 l -0.4,1.5 c -0.4,-0.2 -1.1,-0.5 -2.1,-0.5 -2.3,0 -3.5,1.9 -3.5,4.2 0,2.6 1.5,4.1 3.5,4.1 1,0 1.7,-0.3 2.2,-0.5 z"
         id="path34"
         inkscape:connector-curvature="0" /><path
         d="m 476.1,241.4 c 0,0.7 -0.4,1.2 -1.2,1.2 -0.7,0 -1.1,-0.5 -1.1,-1.2 0,-0.7 0.5,-1.3 1.1,-1.3 0.7,0 1.2,0.6 1.2,1.3 z m -2.1,14.1 v -11.1 h 1.8 v 11.1 z"
         id="path36"
         inkscape:connector-curvature="0" /><path
         d="m 487.9,249.9 c 0,4.1 -2.6,5.9 -5,5.9 -2.7,0 -4.8,-2.2 -4.8,-5.7 0,-3.7 2.2,-5.9 4.9,-5.9 2.9,0.1 4.9,2.4 4.9,5.7 z M 480,250 c 0,2.4 1.2,4.2 3,4.2 1.7,0 3,-1.8 3,-4.3 0,-1.9 -0.8,-4.2 -3,-4.2 -2.1,0.1 -3,2.3 -3,4.3 z"
         id="path38"
         inkscape:connector-curvature="0" /><path
         d="m 490.1,247.5 c 0,-1.2 0,-2.1 -0.1,-3 h 1.6 l 0.1,1.8 v 0 c 0.5,-1 1.6,-2.1 3.3,-2.1 1.4,0 3.5,0.9 3.5,4.7 v 6.6 h -1.8 v -6.4 c 0,-1.8 -0.6,-3.3 -2.3,-3.3 -1.2,0 -2.1,0.9 -2.4,2.1 -0.1,0.3 -0.1,0.6 -0.1,0.9 v 6.7 h -1.8 z"
         id="path40"
         inkscape:connector-curvature="0" /><path
         d="m 508.6,252.9 c 0,1 0,1.9 0.1,2.7 h -1.6 l -0.1,-1.4 h -0.1 c -0.6,0.9 -1.6,1.6 -3,1.6 -2,0 -3,-1.6 -3,-3.2 0,-2.7 2.1,-4.1 6,-4.1 v -0.2 c 0,-0.9 -0.2,-2.6 -2.3,-2.5 -0.9,0 -1.9,0.3 -2.6,0.8 l -0.4,-1.3 c 0.8,-0.6 2,-1 3.3,-1 3,0 3.8,2.3 3.8,4.5 v 4.1 z m -1.8,-3 c -2,0 -4.2,0.3 -4.2,2.5 0,1.3 0.8,1.9 1.7,1.9 1.3,0 2.2,-0.9 2.4,-1.8 0.1,-0.2 0.1,-0.5 0.1,-0.6 z"
         id="path42"
         inkscape:connector-curvature="0" /><path
         d="m 511.5,239.3 h 1.8 v 16.2 h -1.8 z"
         id="path44"
         inkscape:connector-curvature="0" /><path
         d="m 345.6,264.1 v 13.4 c 0,1 0,2.1 0.1,2.9 H 344 l -0.1,-1.9 h -0.1 c -0.5,1.2 -1.7,2.2 -3.4,2.2 -2.4,0 -4.3,-2.3 -4.3,-5.6 0,-3.7 2.1,-5.9 4.5,-5.9 1.5,0 2.6,0.8 3,1.7 v 0 -6.6 h 2 z m -1.8,9.7 c 0,-0.2 0,-0.6 -0.1,-0.8 -0.3,-1.3 -1.3,-2.3 -2.6,-2.3 -1.9,0 -3,1.8 -3,4.3 0,2.2 1,4.1 2.9,4.1 1.2,0 2.3,-0.9 2.7,-2.4 0.1,-0.3 0.1,-0.6 0.1,-0.9 z"
         id="path46"
         inkscape:connector-curvature="0" /><path
         d="m 349.6,275.2 c 0,2.7 1.6,3.8 3.4,3.8 1.3,0 2.1,-0.3 2.8,-0.6 l 0.3,1.4 c -0.6,0.3 -1.7,0.7 -3.3,0.7 -3.1,0 -4.9,-2.3 -4.9,-5.6 0,-3.3 1.8,-5.9 4.7,-5.9 3.3,0 4.1,3.2 4.1,5.2 0,0.4 0,0.7 -0.1,0.9 h -7 z m 5.3,-1.5 c 0,-1.3 -0.5,-3.2 -2.5,-3.2 -1.9,0 -2.6,1.9 -2.8,3.2 z"
         id="path48"
         inkscape:connector-curvature="0" /><path
         d="m 363.3,264.9 h 1.8 v 13.7 h 5.9 v 1.7 h -7.7 z"
         id="path50"
         inkscape:connector-curvature="0" /><path
         d="m 381,277.3 c 0,1.2 0,2.2 0.1,3 h -1.6 l -0.1,-1.8 v 0 c -0.5,0.9 -1.5,2.1 -3.3,2.1 -1.6,0 -3.4,-1 -3.4,-4.8 v -6.5 h 1.8 v 6.1 c 0,2.1 0.6,3.5 2.2,3.5 1.2,0 2.1,-0.9 2.4,-1.8 0.1,-0.3 0.2,-0.6 0.2,-1 v -6.8 h 1.8 v 8 z"
         id="path52"
         inkscape:connector-curvature="0" /><path
         d="m 382.9,279.2 4.5,-6.5 c 0.5,-0.6 0.9,-1.1 1.3,-1.7 v 0 h -5.4 v -1.6 h 7.6 v 1.3 l -4.4,6.4 c -0.4,0.6 -0.8,1.2 -1.3,1.7 v 0 h 5.8 v 1.6 h -8.1 z"
         id="path54"
         inkscape:connector-curvature="0" /><path
         d="m 397,277.9 c 0.8,0.6 2,1 3.2,1 1.8,0 2.9,-1.1 2.9,-2.6 0,-1.4 -0.7,-2.3 -2.6,-3 -2.3,-0.9 -3.7,-2.2 -3.7,-4.4 0,-2.4 1.8,-4.2 4.5,-4.2 1.4,0 2.4,0.4 3,0.8 l -0.5,1.6 c -0.4,-0.3 -1.4,-0.7 -2.6,-0.7 -1.9,0 -2.6,1.3 -2.6,2.3 0,1.4 0.8,2.1 2.8,3 2.3,1 3.5,2.3 3.5,4.5 0,2.4 -1.6,4.5 -4.8,4.5 -1.3,0 -2.8,-0.5 -3.5,-1 z"
         id="path56"
         inkscape:connector-curvature="0" /><path
         d="m 411,264.5 -2.5,3.3 h -1.3 l 1.8,-3.3 z m -3.7,15.8 v -11.1 h 1.8 v 11.1 z"
         id="path58"
         inkscape:connector-curvature="0" /><path
         d="m 412.1,272.3 c 0,-1.2 0,-2.1 -0.1,-3 h 1.6 l 0.1,1.8 v 0 c 0.5,-1 1.6,-2.1 3.3,-2.1 1.4,0 3.5,0.9 3.5,4.7 v 6.6 h -1.8 v -6.4 c 0,-1.8 -0.6,-3.3 -2.3,-3.3 -1.2,0 -2.1,0.9 -2.4,2.1 -0.1,0.3 -0.1,0.6 -0.1,0.9 v 6.7 h -1.8 z"
         id="path60"
         inkscape:connector-curvature="0" /><path
         d="m 430.7,279.9 c -0.5,0.3 -1.5,0.6 -2.9,0.6 -3,0 -5,-2.3 -5,-5.6 0,-3.4 2.1,-5.9 5.4,-5.9 1.1,0 2,0.3 2.5,0.6 l -0.4,1.5 c -0.4,-0.2 -1.1,-0.5 -2.1,-0.5 -2.3,0 -3.5,1.9 -3.5,4.2 0,2.6 1.5,4.1 3.5,4.1 1,0 1.7,-0.3 2.2,-0.5 z"
         id="path62"
         inkscape:connector-curvature="0" /><path
         d="m 432.8,272.7 c 0,-1.3 0,-2.4 -0.1,-3.4 h 1.6 l 0.1,2.2 h 0.1 c 0.5,-1.5 1.6,-2.4 2.8,-2.4 0.2,0 0.3,0 0.5,0 v 1.9 c -0.2,0 -0.4,0 -0.6,0 -1.3,0 -2.2,1 -2.4,2.6 0,0.3 -0.1,0.6 -0.1,0.9 v 5.9 h -1.8 v -7.7 z"
         id="path64"
         inkscape:connector-curvature="0" /><path
         d="m 448.3,274.7 c 0,4.1 -2.6,5.9 -5,5.9 -2.7,0 -4.8,-2.2 -4.8,-5.7 0,-3.7 2.2,-5.9 4.9,-5.9 3,0 4.9,2.3 4.9,5.7 z m -7.9,0.1 c 0,2.4 1.2,4.2 3,4.2 1.7,0 3,-1.8 3,-4.3 0,-1.9 -0.8,-4.2 -3,-4.2 -2,0 -3,2.2 -3,4.3 z"
         id="path66"
         inkscape:connector-curvature="0" /><path
         d="m 452.8,266.6 v 2.7 h 2.6 v 1.5 h -2.6 v 6 c 0,1.4 0.3,2.1 1.4,2.1 0.5,0 0.8,0 1,-0.1 l 0.1,1.5 c -0.3,0.1 -0.9,0.3 -1.6,0.3 -0.8,0 -1.5,-0.3 -2,-0.8 -0.5,-0.6 -0.7,-1.6 -0.7,-2.9 v -6 h -1.5 v -1.5 h 1.5 v -2.1 z"
         id="path68"
         inkscape:connector-curvature="0" /><path
         d="m 457.4,272.7 c 0,-1.3 0,-2.4 -0.1,-3.4 h 1.6 l 0.1,2.2 h 0.1 c 0.5,-1.5 1.6,-2.4 2.8,-2.4 0.2,0 0.3,0 0.5,0 v 1.9 c -0.2,0 -0.4,0 -0.6,0 -1.3,0 -2.2,1 -2.4,2.6 0,0.3 -0.1,0.6 -0.1,0.9 v 5.9 h -1.8 v -7.7 z"
         id="path70"
         inkscape:connector-curvature="0" /><path
         d="m 472.9,274.7 c 0,4.1 -2.6,5.9 -5,5.9 -2.7,0 -4.8,-2.2 -4.8,-5.7 0,-3.7 2.2,-5.9 4.9,-5.9 3,0 4.9,2.3 4.9,5.7 z m -7.8,0.1 c 0,2.4 1.2,4.2 3,4.2 1.7,0 3,-1.8 3,-4.3 0,-1.9 -0.8,-4.2 -3,-4.2 -2.1,0 -3,2.2 -3,4.3 z"
         id="path72"
         inkscape:connector-curvature="0" /><path
         d="m 475.2,272.3 c 0,-1.2 0,-2.1 -0.1,-3 h 1.6 l 0.1,1.8 v 0 c 0.5,-1 1.6,-2.1 3.3,-2.1 1.4,0 3.5,0.9 3.5,4.7 v 6.6 h -1.8 v -6.4 c 0,-1.8 -0.6,-3.3 -2.3,-3.3 -1.2,0 -2.1,0.9 -2.4,2.1 -0.1,0.3 -0.1,0.6 -0.1,0.9 v 6.7 h -1.8 z"
         id="path74"
         inkscape:connector-curvature="0" /></g><g
       id="g96"><g
         id="g85"><g
           id="XMLID_36_"><g
             id="g80"><path
               class="st1"
               d="m 255.3,292.5 c 0.6,1.4 -0.2,9.2 0.6,10.2 0.3,-0.4 0.3,0.1 0.9,0 0.1,0.7 0.8,0.8 0.8,1.6 1.8,0.1 9.7,0.2 11.5,0.2 -0.1,0.2 -2.3,0 -2.6,0.1 -1.5,0 -7.6,0 -8.9,0.2 -0.2,0.4 -0.8,1.8 -1.3,1.6 -0.2,0 0,0.4 -0.1,0.5 -0.2,0 -0.2,-0.3 -0.4,-0.3 -0.4,1.6 -0.3,6.6 -0.3,8.6 -0.6,-1.4 0.5,-9.2 -1.3,-8.7 -0.4,-0.5 -0.7,-1.1 -0.9,-1.5 -0.9,-0.6 -8.3,-0.2 -9.6,-0.4 0.9,-0.4 8.3,-0.1 9.5,-0.4 0.4,-0.8 0.8,-1.8 1.9,-1.9 0.2,-1.5 0.1,-8.1 0.2,-9.8 z"
               id="path78"
               inkscape:connector-curvature="0"
               style="fill:#0077b8" /></g><g
             id="g82" /></g></g><g
         id="g94"><g
           id="XMLID_35_"><g
             id="g89"><path
               class="st1"
               d="m 256,303.8 c 0.6,-0.6 2.9,-2.8 3.5,-3.3 0,0.1 -0.2,0.3 -0.3,0.4 -0.5,0.5 -2.6,2.6 -3,3.1 0.1,0.2 0.3,0.9 0.1,1 -0.1,0.1 0.1,0.1 0.2,0.2 -0.1,0.1 -0.2,0 -0.3,0 0.4,0.7 2.8,3 3.5,3.7 -0.7,-0.3 -3.6,-4 -4.1,-3.2 -0.3,0 -0.6,-0.1 -0.8,-0.2 -0.5,0.1 -2.9,2.8 -3.4,3.1 0.2,-0.4 2.8,-2.9 3.1,-3.4 -0.1,-0.4 -0.4,-0.9 0,-1.3 -0.5,-0.6 -3.4,-3.5 -3.9,-4.1 0.7,0.3 3.7,3.9 4.4,3.9 0,-0.2 0.1,0 0.3,-0.3 0.2,0.4 0.4,0.1 0.7,0.4 z"
               id="path87"
               inkscape:connector-curvature="0"
               style="fill:#0077b8" /></g><g
             id="g91" /></g></g></g><g
       id="g110"><path
         class="st1"
         d="m 142,109.9 v 141.2 h 24.9 c -2.2,-3.9 -3.5,-8.4 -3.5,-13.2 0,-14.7 11.9,-26.6 26.6,-26.6 14.7,0 26.6,11.9 26.6,26.6 0,4.8 -1.3,9.3 -3.5,13.2 h 63.2 c -0.6,-0.7 -1.1,-1.3 -1.6,-1.9 -13.8,-15.5 -31.4,-29.4 -54.1,-37.1 -7.2,-2.4 -15.2,-3.7 -22.4,-5 7.2,-1.3 14.7,-2 22.3,-2 22.2,0 42.9,5.9 61.2,15.7 5.3,2.8 18.7,10.7 31,17.9 V 109.9 Z m 17.2,119.7 c -1.3,-7.2 -2,-14.7 -2,-22.3 0,-22.2 6,-42.9 15.7,-61.2 4.4,-8.2 10.2,-17.9 17.8,-30.6 l 34.7,20 c 0,0 -15.8,10.2 -24.1,17.7 -15.5,13.8 -29.4,31.4 -37.1,54 -2.4,7.2 -3.7,15.2 -5,22.4 z m 8.2,-14.3 c 2.5,-6.9 5.6,-13.7 9.4,-20.3 11.1,-19.2 26.6,-34.2 44.2,-45.2 7.8,-4.9 17.8,-10.4 30.7,-17.7 l 20.1,34.6 c 0,0 -18.8,1 -29.7,3.3 -20.3,4.2 -41.2,12.5 -59.1,28.3 -5.7,5.1 -10.9,11.4 -15.6,17 z m 128.9,2.2 c 0,0 -16.7,-8.6 -27.3,-12.1 -19.7,-6.5 -41.9,-9.9 -65.3,-5.3 -7.5,1.5 -15,4.3 -22,6.8 5.6,-4.7 11.8,-9 18.3,-12.8 19.2,-11.1 40.2,-16.2 60.9,-16.9 9.2,-0.3 20.7,-0.1 35.4,0.1 z"
         id="path98"
         inkscape:connector-curvature="0"
         style="fill:#0077b8" /><g
         id="g108"><polyline
           class="st2"
           points="188.3,259.1 188.3,280.4 195.4,280.4 195.4,265.3 210.5,280.4 216.7,280.4 216.7,259.1      209.6,259.1 209.6,274.3 194.4,259.1 188.3,259.1    "
           id="polyline100"
           style="clip-rule:evenodd;fill-rule:evenodd" /><path
           d="m 149.1,273.3 c 0,2 1.6,3.5 3.5,3.5 h 14.2 v 3.6 h -17.9 c -3.9,0 -7.1,-3.1 -7.1,-7.1 V 259 h 7.2 l 0.1,14.3"
           id="path102"
           inkscape:connector-curvature="0" /><path
           d="m 247,273.3 c 0,2 1.6,3.5 3.5,3.5 h 14.2 v 3.6 h -17.9 c -3.9,0 -7.1,-3.1 -7.1,-7.1 V 259 h 7.2 l 0.1,14.3"
           id="path104"
           inkscape:connector-curvature="0" /><path
           d="m 294.1,268 c -1.5,0 -2.7,-1.2 -2.7,-2.7 0,-1.5 1.2,-2.7 2.7,-2.7 H 311 V 259 h -20.5 c -3.4,0 -6.2,2.8 -6.2,6.2 0,3.4 2.8,6.2 6.2,6.2 H 303 c 1.5,0 2.7,1.2 2.7,2.7 0,1.5 -1.2,2.7 -2.7,2.7 h -16.9 v 3.6 h 20.5 c 3.4,0 6.2,-2.8 6.2,-6.2 0,-3.4 -2.8,-6.2 -6.2,-6.2 h -12.5"
           id="path106"
           inkscape:connector-curvature="0" /></g></g><g
       id="g124"><path
         d="m 280.4,307 c 0,0.3 -0.1,0.5 -0.2,0.7 -0.1,0.2 -0.2,0.4 -0.4,0.6 -0.2,0.2 -0.4,0.3 -0.6,0.4 -0.2,0.1 -0.5,0.1 -0.7,0.1 h -5.8 v -1.7 h 5.8 c 0.1,0 0.1,0 0.1,-0.1 0,0 0.1,-0.1 0.1,-0.1 0,-0.1 0,-0.2 -0.1,-0.2 l -4.9,-2.9 c -0.3,-0.2 -0.5,-0.4 -0.7,-0.7 -0.2,-0.3 -0.3,-0.6 -0.3,-1 0,-0.3 0.1,-0.5 0.2,-0.7 0.1,-0.2 0.2,-0.4 0.4,-0.6 0.2,-0.2 0.4,-0.3 0.6,-0.4 0.2,-0.1 0.5,-0.2 0.7,-0.2 h 4.9 v 1.7 h -4.9 c -0.1,0 -0.1,0 -0.2,0.1 0,0 -0.1,0.1 -0.1,0.2 0,0 0,0.1 0.1,0.2 l 4.9,2.9 c 0.3,0.2 0.5,0.4 0.7,0.7 0.3,0.3 0.4,0.6 0.4,1 z"
         id="path112"
         inkscape:connector-curvature="0" /><path
         d="M 281.4,298.7 V 297 h 1.7 v 1.7 z m 0,10.2 v -8.5 h 1.7 v 8.5 z"
         id="path114"
         inkscape:connector-curvature="0" /><path
         d="m 286.4,302.1 c -0.1,0 -0.2,0.1 -0.2,0.2 v 6.6 h -1.7 v -6.6 c 0,-0.3 0.1,-0.5 0.2,-0.7 0.1,-0.2 0.2,-0.4 0.4,-0.6 0.2,-0.2 0.4,-0.3 0.6,-0.4 0.2,-0.1 0.5,-0.2 0.7,-0.2 h 4.9 v 1.7 z"
         id="path116"
         inkscape:connector-curvature="0" /><path
         d="M 292.3,298.7 V 297 h 1.7 v 1.7 z m 0,10.2 v -8.5 h 1.7 v 8.5 z"
         id="path118"
         inkscape:connector-curvature="0" /><path
         d="m 302.8,307.7 c -0.1,0.2 -0.2,0.4 -0.4,0.6 -0.2,0.2 -0.4,0.3 -0.6,0.4 -0.2,0.1 -0.5,0.2 -0.8,0.2 h -3.8 c -0.5,0 -1,-0.2 -1.4,-0.6 -0.4,-0.4 -0.6,-0.8 -0.6,-1.4 v -6.6 h 1.7 v 6.6 c 0,0.1 0,0.1 0.1,0.2 0,0 0.1,0.1 0.2,0.1 h 3.8 c 0.1,0 0.1,0 0.2,-0.1 0,0 0.1,-0.1 0.1,-0.2 v -6.6 h 1.7 v 6.6 c 0,0.3 -0.1,0.6 -0.2,0.8 z"
         id="path120"
         inkscape:connector-curvature="0" /><path
         d="m 311.5,307 c 0,0.3 -0.1,0.5 -0.2,0.7 -0.1,0.2 -0.2,0.4 -0.4,0.6 -0.2,0.2 -0.4,0.3 -0.6,0.4 -0.2,0.1 -0.5,0.1 -0.7,0.1 h -5.8 v -1.7 h 5.8 c 0.1,0 0.1,0 0.1,-0.1 0,0 0.1,-0.1 0.1,-0.1 0,-0.1 0,-0.2 -0.1,-0.2 l -4.9,-2.9 c -0.3,-0.2 -0.5,-0.4 -0.7,-0.7 -0.2,-0.3 -0.3,-0.6 -0.3,-1 0,-0.3 0.1,-0.5 0.2,-0.7 0.1,-0.2 0.2,-0.4 0.4,-0.6 0.2,-0.2 0.4,-0.3 0.6,-0.4 0.2,-0.1 0.5,-0.2 0.8,-0.2 h 4.9 v 1.7 h -4.9 c -0.1,0 -0.1,0 -0.2,0.1 0,0 -0.1,0.1 -0.1,0.2 0,0 0,0.1 0.1,0.2 l 4.9,2.9 c 0.3,0.2 0.5,0.4 0.7,0.7 0.2,0.3 0.3,0.6 0.3,1 z"
         id="path122"
         inkscape:connector-curvature="0" /></g><rect
       x="142"
       y="288.29999"
       width="170.8"
       height="0.60000002"
       id="rect126" /></g></svg>